<?xml version="1.0" standalone="no"?>
<!DOCTYPE svg PUBLIC "-//W3C//DTD SVG 20010904//EN"
 "http://www.w3.org/TR/2001/REC-SVG-20010904/DTD/svg10.dtd">
<svg version="1.0" xmlns="http://www.w3.org/2000/svg"
 width="256.000000pt" height="256.000000pt" viewBox="0 0 256.000000 256.000000"
 preserveAspectRatio="xMidYMid meet">

<g transform="translate(0.000000,256.000000) scale(0.100000,-0.100000)"
fill="#000000" stroke="none">
<path d="M1056 2499 c-46 -36 -56 -69 -56 -177 l0 -100 -27 -7 c-16 -3 -59
-20 -96 -37 l-68 -31 -73 72 c-77 76 -116 93 -182 77 -28 -7 -219 -186 -265
-250 -31 -42 -38 -99 -18 -139 6 -12 40 -52 76 -88 l65 -66 -38 -97 -38 -96
-99 0 c-111 0 -142 -11 -179 -62 -22 -32 -23 -40 -23 -218 0 -178 1 -186 23
-218 37 -51 68 -62 182 -62 87 0 101 -2 107 -17 3 -10 20 -53 38 -95 l32 -76
-64 -64 c-73 -71 -93 -103 -93 -148 0 -55 28 -95 149 -213 94 -92 125 -117
155 -122 67 -13 96 0 177 81 l76 76 49 -25 c27 -14 68 -30 92 -37 l42 -13 0
-104 c0 -117 10 -148 62 -185 32 -22 41 -23 213 -23 201 0 228 7 265 68 17 26
20 51 20 140 0 79 3 107 13 107 6 0 48 16 92 35 l80 35 70 -69 c38 -38 80 -74
92 -80 31 -15 79 -14 117 4 42 20 252 232 265 269 28 71 10 114 -82 204 l-64
64 32 76 c18 42 35 85 38 94 6 16 20 18 107 18 114 0 145 11 182 62 22 32 23
40 23 218 0 178 -1 186 -23 218 -37 51 -68 62 -179 62 l-99 0 -38 96 -38 97
65 66 c73 75 87 97 87 140 0 54 -20 84 -132 198 -115 116 -154 143 -208 143
-44 0 -66 -13 -142 -88 l-67 -65 -68 31 c-37 17 -80 34 -95 37 l-28 7 0 100
c0 110 -11 143 -59 177 -27 20 -43 21 -224 21 -182 0 -196 -1 -221 -21z m402
-81 c8 -8 12 -51 12 -129 0 -81 4 -120 13 -127 6 -6 41 -20 76 -32 35 -12 90
-34 122 -51 32 -16 66 -29 76 -29 9 0 54 36 99 80 55 54 89 80 105 80 34 0
249 -215 249 -249 0 -16 -25 -49 -80 -105 -44 -45 -80 -90 -80 -100 0 -10 13
-46 29 -80 16 -33 37 -86 47 -116 28 -89 30 -90 164 -90 77 0 120 -4 128 -12
17 -17 17 -339 0 -356 -8 -8 -51 -12 -127 -12 -64 0 -122 -4 -129 -8 -7 -5
-24 -40 -37 -78 -14 -38 -39 -95 -55 -127 -17 -31 -30 -63 -30 -69 0 -6 38
-51 85 -99 58 -59 85 -94 85 -110 0 -34 -215 -249 -249 -249 -16 0 -50 26
-110 85 -48 47 -93 85 -99 85 -7 0 -36 -12 -65 -26 -29 -15 -83 -37 -121 -50
-38 -13 -75 -29 -82 -35 -11 -9 -14 -42 -14 -134 0 -102 -3 -125 -17 -136 -23
-20 -323 -20 -346 0 -14 11 -17 34 -17 136 0 92 -3 125 -14 134 -7 6 -44 22
-82 35 -38 13 -92 35 -121 50 -29 14 -58 26 -65 26 -6 0 -51 -38 -99 -85 -59
-58 -94 -85 -110 -85 -34 0 -249 215 -249 249 0 16 26 50 85 110 47 48 85 92
85 97 0 6 -15 40 -34 77 -18 37 -41 92 -51 122 -26 84 -28 85 -164 85 -78 0
-121 4 -129 12 -17 17 -17 339 0 356 8 8 51 12 128 12 133 0 140 3 160 80 7
25 27 77 46 117 19 39 34 79 34 89 0 10 -36 55 -80 100 -54 55 -80 89 -80 105
0 34 215 249 249 249 16 0 49 -25 105 -80 45 -44 90 -80 99 -80 10 0 44 13 76
29 32 17 87 39 122 51 35 12 70 29 77 38 8 10 12 53 12 127 0 73 4 115 12 123
8 8 62 12 178 12 116 0 170 -4 178 -12z"/>
<path d="M1210 1870 c-141 -19 -253 -74 -350 -170 -232 -233 -232 -607 0 -840
232 -232 608 -232 840 0 113 114 172 257 172 420 1 228 -125 430 -335 536 -89
46 -225 68 -327 54z m220 -110 c317 -93 455 -481 270 -758 -97 -145 -245 -224
-420 -224 -284 0 -501 218 -502 502 -1 254 173 456 430 500 61 11 141 3 222
-20z"/>
</g>
</svg>
